<svg width="60" height="60" viewBox="0 0 60 60" fill="none" xmlns="http://www.w3.org/2000/svg">
<path fill-rule="evenodd" clip-rule="evenodd" d="M29.9975 49.4025C27.9638 49.4025 26.309 51.0725 26.309 53.125C26.309 54.16 25.4767 55 24.4512 55H17.7604C12.1026 55 7.5 50.355 7.5 44.645V15.3575C7.5 9.6475 12.1026 5 17.7604 5L24.4512 5C25.4767 5 26.309 5.84 26.309 6.875C26.309 8.93 27.9638 10.6 29.9975 10.6C31.9792 10.6 33.4705 8.9975 33.4705 6.875C33.4705 6.3775 33.6662 5.9025 34.0155 5.55C34.3647 5.1975 34.8379 5 35.3284 5L42.2371 5.005C47.895 5.005 52.5 9.65 52.5 15.36V44.64C52.5 50.35 47.895 54.9975 42.2371 54.9975L35.5439 55C35.0534 55 34.5778 54.8025 34.231 54.4525C33.8817 54.1 33.686 53.625 33.686 53.125C33.686 51.0725 32.0313 49.4025 29.9975 49.4025ZM28.3803 35.6296L31.2241 38.5771C31.7146 39.0896 32.4379 39.2671 33.1067 39.0446C33.7756 38.8246 34.2512 38.2496 34.3478 37.5546L34.9374 33.4821L38.5936 31.6596C39.2228 31.3471 39.6142 30.7121 39.6167 30.0046V29.9996C39.6167 29.2946 39.2253 28.6596 38.5961 28.3421L34.9374 26.5196L34.3503 22.4546C34.2512 21.7521 33.7756 21.1771 33.1067 20.9546C32.4379 20.7346 31.7146 20.9121 31.2241 21.4221L28.3803 24.3696L24.3599 23.6746C23.6663 23.5546 22.9776 23.8371 22.564 24.4121C22.3336 24.7371 22.2147 25.1146 22.2147 25.4971C22.2147 25.7896 22.2865 26.0846 22.4277 26.3546L24.3252 29.9996L22.4327 33.6371C22.0983 34.2671 22.1503 35.0146 22.5664 35.5871C22.9776 36.1646 23.6663 36.4471 24.3599 36.3271L28.3803 35.6296Z" fill="#130F26"/>
</svg>
